<?xml version="1.0" standalone="no"?>
<!DOCTYPE svg PUBLIC "-//W3C//DTD SVG 1.1//EN" "http://www.w3.org/Graphics/SVG/1.1/DTD/svg11.dtd" >
<svg xmlns="http://www.w3.org/2000/svg">
<metadata>
This is a custom SVG webfont generated by Font Squirrel.
</metadata>
<defs>
<font id="webfontf6naK8pD" horiz-adv-x="384" >
<font-face units-per-em="512" ascent="409" descent="-103" />
<missing-glyph horiz-adv-x="500" />
<glyph unicode=" " />
<glyph unicode="!" d="M240 192h-96v192h96v-192zM240 48h-96v48h96v-48z" />
<glyph unicode="&#x22;" d="M336 240h-96v144h96v-144zM144 240h-96v144h96v-144z" />
<glyph unicode="#" d="M384 144h-48v-96h-96v96h-96v-96h-96v96h-48v48h48v48h-48v48h48v96h96v-96h96v96h96v-96h48v-48h-48v-48h48v-48zM240 192v48h-96v-48h96z" />
<glyph unicode="$" d="M336 144h-48v-48h-48v-48h-96v48h-96v48h192v48h-144v48h-48v48h48v48h48v48h96v-48h96v-48h-192v-48h144v-48h48v-48z" />
<glyph unicode="%" d="M144 288h-96v96h96v-96zM336 288h-48v-48h-48v-48h-48v-48h-48v-48h-48v-48h-48v96h48v48h48v48h48v48h48v48h48v48h48v-96zM336 48h-96v96h96v-96z" />
<glyph unicode="&#x26;" d="M384 48h-288v48h-48v96h48v96h-48v48h48v48h192v-48h48v-48h-48v-48h-48v-48h-96v-96h96v96h144v-48h-48v-48h48v-48zM240 288v48h-96v-48h96z" />
<glyph unicode="'" d="M336 336h-48v-48h-48v-48h-96v48h48v48h48v48h96v-48z" />
<glyph unicode="(" d="M288 48h-96v48h-48v48h-48v144h48v48h48v48h96v-48h-48v-48h-48v-144h48v-48h48v-48z" />
<glyph unicode=")" d="M288 144h-48v-48h-48v-48h-96v48h48v48h48v144h-48v48h-48v48h96v-48h48v-48h48v-144z" />
<glyph unicode="*" d="M384 192h-96v-48h48v-48h-96v48h-96v-48h-96v48h48v48h-96v48h96v48h-48v48h96v-48h96v48h96v-48h-48v-48h96v-48z" />
<glyph unicode="+" d="M336 192h-96v-96h-96v96h-96v48h96v96h96v-96h96v-48z" />
<glyph unicode="," d="M240 48h-48v-48h-96v48h48v96h96v-96z" />
<glyph unicode="-" d="M336 192h-288v48h288v-48z" />
<glyph unicode="." d="M240 48h-96v96h96v-96z" />
<glyph unicode="/" d="M384 288h-48v-48h-48v-48h-48v-48h-48v-48h-48v-48h-96v48h48v48h48v48h48v48h48v48h48v48h96v-48z" />
<glyph unicode="0" d="M336 96h-48v-48h-192v48h-48v240h48v48h192v-48h48v-240zM240 288v48h-96v-96h48v48h48zM240 96v144h-48v-48h-48v-96h96z" />
<glyph unicode="1" d="M336 48h-288v48h96v144h-48v48h48v96h96v-288h96v-48z" />
<glyph unicode="2" d="M336 48h-288v96h48v48h96v48h48v96h-96v-48h-96v48h48v48h192v-48h48v-96h-48v-48h-96v-48h-48v-48h192v-48z" />
<glyph unicode="3" d="M336 96h-48v-48h-192v48h-48v48h96v-48h96v96h-96v48h96v96h-96v-48h-96v48h48v48h192v-48h48v-96h-48v-48h48v-96z" />
<glyph unicode="4" d="M384 144h-48v-96h-96v96h-192v96h96v-48h96v48h-96v48h48v48h48v48h96v-192h48v-48z" />
<glyph unicode="5" d="M336 96h-48v-48h-192v48h-48v48h96v-48h96v144h-192v144h288v-48h-192v-48h144v-48h48v-144z" />
<glyph unicode="6" d="M336 96h-48v-48h-192v48h-48v240h48v48h192v-48h48v-48h-96v48h-96v-96h144v-48h48v-96zM240 96v96h-96v-96h96z" />
<glyph unicode="7" d="M336 288h-48v-48h-48v-192h-96v192h48v48h48v48h-96v-48h-96v96h288v-96z" />
<glyph unicode="8" d="M336 96h-48v-48h-192v48h-48v96h48v48h-48v96h48v48h192v-48h48v-96h-48v-48h48v-96zM240 240v96h-96v-96h96zM240 96v96h-96v-96h96z" />
<glyph unicode="9" d="M336 96h-48v-48h-192v48h-48v48h96v-48h96v96h-144v48h-48v96h48v48h192v-48h48v-240zM240 240v96h-96v-96h96z" />
<glyph unicode=":" d="M240 240h-96v48h96v-48zM240 96h-96v48h96v-48z" />
<glyph unicode=";" d="M240 240h-96v48h96v-48zM240 48h-48v-48h-96v48h48v96h96v-96z" />
<glyph unicode="&#x3c;" d="M336 48h-144v48h-48v48h-48v48h-48v48h48v48h48v48h48v48h144v-48h-96v-48h-48v-48h-48v-48h48v-48h48v-48h96v-48z" />
<glyph unicode="=" d="M336 240h-288v48h288v-48zM336 144h-288v48h288v-48z" />
<glyph unicode="&#x3e;" d="M336 192h-48v-48h-48v-48h-48v-48h-144v48h96v48h48v48h48v48h-48v48h-48v48h-96v48h144v-48h48v-48h48v-48h48v-48z" />
<glyph unicode="?" d="M336 240h-48v-48h-48v-48h-96v48h48v48h48v96h-96v-48h-96v48h48v48h192v-48h48v-96zM240 48h-96v48h96v-48z" />
<glyph unicode="@" d="M336 96h-48v-48h-192v48h-48v240h48v48h192v-48h48v-144h-144v96h48v48h-96v-240h144v48h48v-48z" />
<glyph unicode="A" d="M335 50h-95v142h-96v-142h-96v238h48v48h48v48h96v-48h47v-48h48v-238zM240 240v48h-96v-48h96z" />
<glyph unicode="B" d="M336 96h-48v-48h-240v336h240v-48h48v-96h-48v-48h48v-96zM240 240v96h-96v-96h96zM240 96v96h-96v-96h96z" />
<glyph unicode="C" d="M336 96h-48v-48h-192v48h-48v240h48v48h192v-48h48v-48h-96v48h-96v-240h96v48h96v-48z" />
<glyph unicode="D" d="M336 144h-48v-48h-48v-48h-192v336h192v-48h48v-48h48v-144zM240 144v144h-48v48h-48v-240h48v48h48z" />
<glyph unicode="E" d="M336 48h-288v336h288v-48h-192v-96h96v-48h-96v-96h192v-48z" />
<glyph unicode="F" d="M336 336h-192v-96h96v-48h-96v-144h-96v336h288v-48z" />
<glyph unicode="G" d="M336 96h-48v-48h-192v48h-48v240h48v48h192v-48h48v-48h-96v48h-96v-240h96v96h-48v48h144v-144z" />
<glyph unicode="H" d="M336 48h-96v144h-96v-144h-96v336h96v-144h96v144h96v-336z" />
<glyph unicode="I" d="M288 48h-192v48h48v240h-48v48h192v-48h-48v-240h48v-48z" />
<glyph unicode="J" d="M336 336h-48v-240h-48v-48h-144v48h-48v48h96v-48h48v240h-48v48h192v-48z" />
<glyph unicode="K" d="M336 48h-96v48h-48v48h-48v-96h-96v336h96v-96h48v48h48v48h96v-48h-48v-48h-48v-48h-48v-48h48v-48h48v-48h48v-48z" />
<glyph unicode="L" d="M336 48h-288v336h96v-288h192v-48z" />
<glyph unicode="M" d="M384 48h-96v192h-48v-48h-48v48h-48v-192h-96v336h96v-48h48v-48h48v48h48v48h96v-336z" />
<glyph unicode="N" d="M336 48h-96v96h-48v48h-48v-144h-96v336h96v-48h48v-48h48v96h96v-336z" />
<glyph unicode="O" d="M336 96h-48v-48h-192v48h-48v240h48v48h192v-48h48v-240zM240 96v240h-96v-240h96z" />
<glyph unicode="P" d="M336 240h-48v-48h-144v-144h-96v336h240v-48h48v-96zM240 240v96h-96v-96h96z" />
<glyph unicode="Q" d="M336 48h-144v48h-96v48h-48v192h48v48h192v-48h48v-192h-48v-48h48v-48zM240 144v192h-96v-192h96z" />
<glyph unicode="R" d="M336 48h-96v48h-48v48h-48v-96h-96v336h240v-48h48v-96h-48v-48h-48v-48h48v-48h48v-48zM240 240v96h-96v-96h96z" />
<glyph unicode="S" d="M336 96h-48v-48h-192v48h-48v48h96v-48h96v96h-144v48h-48v96h48v48h192v-48h48v-48h-96v48h-96v-96h144v-48h48v-96z" />
<glyph unicode="T" d="M336 336h-96v-288h-96v288h-96v48h288v-48z" />
<glyph unicode="U" d="M336 96h-48v-48h-192v48h-48v288h96v-288h96v288h96v-288z" />
<glyph unicode="V" d="M336 144h-48v-48h-48v-48h-96v48h-48v48h-48v240h96v-240h96v240h96v-240z" />
<glyph unicode="W" d="M384 48h-96v48h-48v48h-48v-48h-48v-48h-96v336h96v-192h48v48h48v-48h48v192h96v-336z" />
<glyph unicode="X" d="M336 48h-96v96h-96v-96h-96v96h48v48h48v48h-48v48h-48v96h96v-96h96v96h96v-96h-48v-48h-48v-48h48v-48h48v-96z" />
<glyph unicode="Y" d="M336 240h-48v-48h-48v-144h-96v144h-48v48h-48v144h96v-144h96v144h96v-144z" />
<glyph unicode="Z" d="M336 48h-288v96h48v48h48v48h48v48h48v48h-192v48h288v-96h-48v-48h-48v-48h-48v-48h-48v-48h192v-48z" />
<glyph unicode="[" d="M288 48h-192v336h192v-48h-96v-240h96v-48z" />
<glyph unicode="\" d="M384 48h-96v48h-48v48h-48v48h-48v48h-48v48h-48v48h96v-48h48v-48h48v-48h48v-48h48v-48h48v-48z" />
<glyph unicode="]" d="M288 48h-192v48h96v240h-96v48h192v-336z" />
<glyph unicode="^" d="M336 192h-96v-192h-96v192h-96v48h48v48h48v48h96v-48h48v-48h48v-48z" />
<glyph unicode="_" d="M384 0h-384v48h384v-48z" />
<glyph unicode="`" d="M383 126h-153v62h91zM230 45q-30 -12 -63 -12q-68 0 -115 47t-47 115q0 67 47 114.5t115 47.5q33 0 63 -12v-142v61q-11 5 -34 8l-29 1q-32 0 -55 -23t-23 -55q0 -33 22 -56q11 -10 25 -16t31 -6l35 1q13 0 28 8v-81zM230 264h151l-60 -61h-91v61z" />
<glyph unicode="a" d="M336 48h-240v48h-48v48h48v48h144v48h-144v48h192v-48h48v-192zM240 96v48h-96v-48h96z" />
<glyph unicode="b" d="M336 96h-48v-48h-240v288h96v-96h144v-48h48v-96zM240 96v96h-96v-96h96z" />
<glyph unicode="c" d="M288 48h-192v48h-48v144h48v48h192v-48h-144v-144h144v-48z" />
<glyph unicode="d" d="M336 48h-240v48h-48v96h48v48h144v96h96v-288zM240 96v96h-96v-96h96z" />
<glyph unicode="e" d="M336 144h-192v-48h144v-48h-192v48h-48v144h48v48h192v-48h48v-96zM240 192v48h-96v-48h96z" />
<glyph unicode="f" d="M336 192h-96v-144h-96v144h-48v48h48v48h48v48h144v-48h-96v-48h96v-48z" />
<glyph unicode="g" d="M336 48h-48v-48h-240v48h192v48h-144v48h-48v96h48v48h240v-240zM240 144v96h-96v-96h96z" />
<glyph unicode="h" d="M336 48h-96v144h-96v-144h-96v288h96v-96h144v-48h48v-144z" />
<glyph unicode="i" d="M240 288h-96v48h96v-48zM288 48h-192v48h48v96h-48v48h144v-144h48v-48z" />
<glyph unicode="j" d="M336 288h-96v48h96v-48zM336 48h-48v-48h-192v48h144v192h96v-192z" />
<glyph unicode="k" d="M336 48h-96v48h-48v48h-48v-96h-96v288h96v-144h48v48h96v-48h-48v-48h48v-48h48v-48z" />
<glyph unicode="l" d="M288 48h-192v48h48v192h-48v48h144v-240h48v-48z" />
<glyph unicode="m" d="M384 48h-96v96h-48v-48h-48v48h-48v-96h-96v240h96v-48h96v48h96v-48h48v-192z" />
<glyph unicode="n" d="M336 48h-96v192h-96v-192h-96v240h240v-48h48v-192z" />
<glyph unicode="o" d="M336 96h-48v-48h-192v48h-48v144h48v48h192v-48h48v-144zM240 96v144h-96v-144h96z" />
<glyph unicode="p" d="M336 144h-48v-48h-144v-96h-96v288h240v-48h48v-96zM240 144v96h-96v-96h96z" />
<glyph unicode="q" d="M336 0h-96v96h-144v48h-48v96h48v48h240v-288zM240 144v96h-96v-96h96z" />
<glyph unicode="r" d="M336 192h-96v48h-96v-192h-96v240h240v-48h48v-48z" />
<glyph unicode="s" d="M336 96h-48v-48h-240v48h192v48h-144v48h-48v48h48v48h240v-48h-192v-48h144v-48h48v-48z" />
<glyph unicode="t" d="M336 48h-144v48h-48v144h-96v48h96v48h96v-48h96v-48h-96v-144h96v-48z" />
<glyph unicode="u" d="M336 48h-240v48h-48v192h96v-192h96v192h96v-240z" />
<glyph unicode="v" d="M336 144h-48v-48h-48v-48h-96v48h-48v48h-48v144h96v-144h96v144h96v-144z" />
<glyph unicode="w" d="M384 144h-48v-96h-96v48h-48v-48h-96v96h-48v144h96v-96h48v48h48v-48h48v96h96v-144z" />
<glyph unicode="x" d="M336 48h-96v48h-96v-48h-96v48h48v48h48v48h-48v48h-48v48h96v-48h96v48h96v-48h-48v-48h-48v-48h48v-48h48v-48z" />
<glyph unicode="y" d="M336 96h-48v-48h-48v-48h-192v48h144v48h-96v48h-48v144h96v-144h96v144h96v-192z" />
<glyph unicode="z" d="M336 48h-288v48h48v48h48v48h48v48h-144v48h288v-48h-48v-48h-48v-48h-48v-48h144v-48z" />
<glyph unicode="{" d="M288 48h-144v48h-48v96h-48v48h48v96h48v48h144v-48h-96v-240h96v-48z" />
<glyph unicode="|" d="M240 0h-96v384h96v-384z" />
<glyph unicode="}" d="M336 192h-48v-96h-48v-48h-144v48h96v240h-96v48h144v-48h48v-96h48v-48z" />
<glyph unicode="~" d="M336 192h-48v-48h-96v48h-48v-48h-48v48h48v48h96v-48h48v48h48v-48z" />
<glyph unicode="&#xa1;" d="M240 288h-96v48h96v-48zM240 0h-96v192h96v-192z" />
<glyph unicode="&#xa2;" d="M288 48h-48v-47h-96v47h-48v48h-48v144h48v48h48v48h96v-48h48v-48h-144v-144h144v-48z" />
<glyph unicode="&#xa3;" d="M336 96h-48v-48h-288v48h48v48h48v48h-48v48h48v48h48v48h48v48h96v-48h48v-48h-48v48h-96v-96h96v-48h-96v-48h-48v-48h144v48h48v-48z" />
<glyph unicode="&#xa4;" d="M336 96h-48v48h-48v-48h-48v48h-48v-48h-48v48h48v48h-48v48h48v48h-48v48h48v-48h48v48h48v-48h48v48h48v-48h-48v-48h48v-48h-48v-48h48v-48zM240 192v48h-48v-48h48z" />
<glyph unicode="&#xa5;" d="M336 336h-48v-48h-48v-48h48v-48h-48v-48h48v-48h-48v-48h-96v48h-48v48h48v48h-48v48h48v48h-48v48h-48v48h48v-48h48v-48h96v48h48v48h48v-48z" />
<glyph unicode="&#xa6;" d="M240 240h-96v144h96v-144zM240 0h-96v144h96v-144z" />
<glyph unicode="&#xa7;" d="M336 96h-48v-48h-240v48h192v48h-144v48h-48v48h48v48h-48v48h48v48h240v-48h-192v-48h144v-48h48v-48h-48v-48h48v-48zM240 192h-96v48h96v-48z" />
<glyph unicode="&#xa8;" d="M288 336h-48v48h48v-48zM144 336h-48v48h48v-48z" />
<glyph unicode="&#xa9;" d="M384 96h-48v-48h-48v-48h-192v48h-48v48h-48v192h48v48h48v48h192v-48h48v-48h48v-192zM336 96v192h-48v48h-192v-48h-48v-192h48v-48h192v48h48zM240 96h-96v48h-48v96h48v48h96v-48h-96v-96h96v-48z" />
<glyph unicode="&#xaa;" d="M336 240h-240v48h-48v48h48v48h240v-144zM336 144h-288v48h288v-48zM240 288v48h-96v-48h96z" />
<glyph unicode="&#xab;" d="M336 288h-48v48h48v-48zM192 288h-48v48h48v-48zM288 144h-48v48h-48v48h48v48h48v-48h-48v-48h48v-48zM336 96h-48v48h48v-48zM144 144h-48v48h-48v48h48v48h48v-48h-48v-48h48v-48zM192 96h-48v48h48v-48z" />
<glyph unicode="&#xac;" d="M384 48h-48v144h-288v48h336v-192z" />
<glyph unicode="&#xad;" d="M288 192h-192v48h192v-48z" />
<glyph unicode="&#xae;" d="M384 96h-48v-48h-48v-48h-192v48h-48v48h-48v192h48v48h48v48h192v-48h48v-48h48v-192zM336 96v192h-48v48h-192v-48h-48v-192h48v-48h192v48h48zM288 96h-48v48h-96v-48h-48v192h144v-48h48v-48h-48v-48h48v-48zM240 192v48h-96v-48h96z" />
<glyph unicode="&#xaf;" d="M384 336h-384v48h384v-48z" />
<glyph unicode="&#xb0;" d="M288 240h-144v144h144v-144zM240 288v48h-48v-48h48z" />
<glyph unicode="&#xb1;" d="M336 240h-96v-96h-96v96h-96v48h96v96h96v-96h96v-48zM336 48h-288v48h288v-48z" />
<glyph unicode="&#xb2;" d="M336 144h-288v96h48v48h96h48v48h-192v48h240v-48h48v-48h-48v-48h-144v-48h192v-48z" />
<glyph unicode="&#xb3;" d="M336 192h-48v-48h-240v48h192v48h-96v48h96v48h-192v48h240v-48h48v-48h-48v-48h48v-48z" />
<glyph unicode="&#xb4;" d="M240 336h-48v48h48v-48zM192 288h-48v48h48v-48z" />
<glyph unicode="&#xb5;" d="M336 48h-48v48h-48v-48h-144v-48h-48v288h96v-192h96v192h96v-240z" />
<glyph unicode="&#xb6;" d="M384 336h-48v-288h-48v288h-48v-288h-48v288h-48v-144h-48v48h-48v96h48v48h288v-48z" />
<glyph unicode="&#xb7;" d="M240 144h-96v96h96v-96z" />
<glyph unicode="&#x2219;" d="M240 144h-96v96h96v-96z" />
<glyph unicode="&#xb8;" d="M240 0h-144v48h48v48h96v-96z" />
<glyph unicode="&#xb9;" d="M336 144h-288v48h96v96h-48v48h48v48h96v-192h96v-48z" />
<glyph unicode="&#xba;" d="M336 288h-48v-48h-192v48h-48v48h48v48h192v-48h48v-48zM336 144h-288v48h288v-48zM240 288v48h-96v-48h96z" />
<glyph unicode="&#xbb;" d="M240 288h-48v48h48v-48zM336 192h-48v-48h-48v48h48v48h-48v48h48v-48h48v-48zM96 288h-48v48h48v-48zM192 192h-48v-48h-48v48h48v48h-48v48h48v-48h48v-48zM240 96h-48v48h48v-48zM96 96h-48v48h48v-48z" />
<glyph unicode="&#xbc;" d="M96 192h-48v192h48v-192zM384 48h-48v48h-144v48h48v48h48v48h48v48h48v-240zM336 288h-48v-48h-48v-48h-48v-48h-48v-48h-48v-48h-48v48h48v48h48v48h48v48h48v48h48v48h48v-48zM336 144v48h-48v-48h48z" />
<glyph unicode="&#xbd;" d="M96 192h-48v192h48v-192zM384 48h-96v96h48v48h-48v48h48v-48h48v-48h-48v-48h48v-48zM336 288h-48v-48h-48v-48h-48v-48h-48v-48h-48v-48h-48v48h48v48h48v48h48v48h48v48h48v48h48v-48z" />
<glyph unicode="&#xbe;" d="M144 192h-48v-48h-48v48h48v48h-48v48h48v48h-48v48h48v-48h48v-144zM384 48h-48v48h-144v48h48v48h48v48h48v48h48v-240zM336 288h-48v-48h-48v-48h-48v-48h-48v-48h-48v-48h-48v48h48v48h48v48h48v48h48v48h48v48h48v-48zM336 144v48h-48v-48h48z" />
<glyph unicode="&#xbf;" d="M240 288h-96v48h96v-48zM336 48h-48v-48h-192v48h-48v96h48v48h48v48h96v-48h-48v-48h-48v-96h96v48h96v-48z" />
<glyph unicode="&#xc0;" d="M192 336h-48v48h48v-48zM240 288h-48v48h48v-48zM335 50h-95v46h-96v-46h-96v140h48v48h48v48h96v-48h47v-48h48v-140zM240 142v48h-96v-48h96z" />
<glyph unicode="&#xc1;" d="M240 336h-48v48h48v-48zM192 288h-48v48h48v-48zM335 50h-95v46h-96v-46h-96v140h48v48h48v48h96v-48h47v-48h48v-140zM240 142v48h-96v-48h96z" />
<glyph unicode="&#xc2;" d="M240 336h-96v48h96v-48zM288 288h-48v48h48v-48zM144 288h-48v48h48v-48zM335 50h-95v46h-96v-46h-96v140h48v48h48v48h96v-48h47v-48h48v-140zM240 142v48h-96v-48h96z" />
<glyph unicode="&#xc3;" d="M336 336h-48v-48h-96v48h-48v-48h-48v48h48v48h96v-48h48v48h48v-48zM335 50h-95v46h-96v-46h-96v140h48v48h48v48h96v-48h47v-48h48v-140zM240 142v48h-96v-48h96z" />
<glyph unicode="&#xc4;" d="M288 336h-48v48h48v-48zM144 336h-48v48h48v-48zM335 50h-95v46h-96v-46h-96v140h48v48h48v48h96v-48h47v-48h48v-140zM240 142v48h-96v-48h96z" />
<glyph unicode="&#xc5;" d="M240 336h-96v48h96v-48zM335 50h-95v46h-96v-46h-96v140h48v48h48v48h96v-48h47v-48h48v-140zM240 142v48h-96v-48h96z" />
<glyph unicode="&#xc6;" d="M384 50h-192v142h-48v-142h-96v238h48v48h48v48h240v-48h-96v-96h48v-48h-48v-96h96v-46zM192 240v48h-48v-48h48z" />
<glyph unicode="&#xc7;" d="M336 144h-48v-48h-48v-96h-144v48h48v48h-48v48h-48v192h48v48h192v-48h48v-48h-96v48h-96v-192h96v48h96v-48z" />
<glyph unicode="&#xc8;" d="M192 336h-48v48h48v-48zM240 288h-48v48h48v-48zM336 48h-288v240h288v-48h-192v-48h96v-48h-96v-48h192v-48z" />
<glyph unicode="&#xc9;" d="M240 336h-48v48h48v-48zM192 288h-48v48h48v-48zM336 48h-288v240h288v-48h-192v-48h96v-48h-96v-48h192v-48z" />
<glyph unicode="&#xca;" d="M240 336h-96v48h96v-48zM288 288h-48v48h48v-48zM144 288h-48v48h48v-48zM336 48h-288v240h288v-48h-192v-48h96v-48h-96v-48h192v-48z" />
<glyph unicode="&#xcb;" d="M288 336h-48v48h48v-48zM144 336h-48v48h48v-48zM336 48h-288v240h288v-48h-192v-48h96v-48h-96v-48h192v-48z" />
<glyph unicode="&#xcc;" d="M192 336h-48v48h48v-48zM240 288h-48v48h48v-48zM288 48h-192v48h48v144h-48v48h192v-48h-48v-144h48v-48z" />
<glyph unicode="&#xcd;" d="M240 336h-48v48h48v-48zM192 288h-48v48h48v-48zM288 48h-192v48h48v144h-48v48h192v-48h-48v-144h48v-48z" />
<glyph unicode="&#xce;" d="M240 336h-96v48h96v-48zM288 288h-48v48h48v-48zM144 288h-48v48h48v-48zM288 48h-192v48h48v144h-48v48h192v-48h-48v-144h48v-48z" />
<glyph unicode="&#xcf;" d="M288 336h-48v48h48v-48zM144 336h-48v48h48v-48zM288 48h-192v48h48v144h-48v48h192v-48h-48v-144h48v-48z" />
<glyph unicode="&#xd0;" d="M384 144h-48v-48h-48v-48h-192v144h-48v48h48v144h192v-48h48v-48h48v-144zM288 144v144h-48v48h-48v-96h48v-48h-48v-96h48v48h48z" />
<glyph unicode="&#xd1;" d="M336 336h-48v-48h-96v48h-48v-48h-48v48h48v48h96v-48h48v48h48v-48zM336 48h-96v48h-48v48h-48v-96h-96v240h96v-48h48v-48h48v96h96v-240z" />
<glyph unicode="&#xd2;" d="M192 336h-48v48h48v-48zM240 288h-48v48h48v-48zM336 96h-48v-48h-192v48h-48v144h48v48h192v-48h48v-144zM240 96v144h-96v-144h96z" />
<glyph unicode="&#xd3;" d="M240 336h-48v48h48v-48zM192 288h-48v48h48v-48zM336 96h-48v-48h-192v48h-48v144h48v48h192v-48h48v-144zM240 96v144h-96v-144h96z" />
<glyph unicode="&#xd4;" d="M240 336h-96v48h96v-48zM288 288h-48v48h48v-48zM144 288h-48v48h48v-48zM336 96h-48v-48h-192v48h-48v144h48v48h192v-48h48v-144zM240 96v144h-96v-144h96z" />
<glyph unicode="&#xd5;" d="M336 336h-48v-48h-96v48h-48v-48h-48v48h48v48h96v-48h48v48h48v-48zM336 96h-48v-48h-192v48h-48v144h48v48h192v-48h48v-144zM240 96v144h-96v-144h96z" />
<glyph unicode="&#xd6;" d="M288 336h-48v48h48v-48zM144 336h-48v48h48v-48zM336 96h-48v-48h-192v48h-48v144h48v48h192v-48h48v-144zM240 96v144h-96v-144h96z" />
<glyph unicode="&#xd7;" d="M336 48h-48v48h-48v48h-96v-48h-48v-48h-48v48h48v48h48v48h-48v48h-48v48h48v-48h48v-48h96v48h48v48h48v-48h-48v-48h-48v-48h48v-48h48v-48z" />
<glyph unicode="&#xd8;" d="M384 336h-48v48h48v-48zM336 96h-48v-48h-192h-48v48v240h48v48h192v-48h48v-240zM240 96v96h-48v48h48v96h-96v-144h48v-48h-48v-48h96z" />
<glyph unicode="&#xd9;" d="M192 336h-48v48h48v-48zM240 288h-48v48h48v-48zM336 96h-48v-48h-192v48h-48v192h96v-192h96v192h96v-192z" />
<glyph unicode="&#xda;" d="M240 336h-48v48h48v-48zM192 288h-48v48h48v-48zM336 96h-48v-48h-192v48h-48v192h96v-192h96v192h96v-192z" />
<glyph unicode="&#xdb;" d="M240 336h-96v48h96v-48zM288 288h-48v48h48v-48zM144 288h-48v48h48v-48zM336 96h-48v-48h-192v48h-48v144h96v-144h96v144h96v-144z" />
<glyph unicode="&#xdc;" d="M288 336h-48v48h48v-48zM144 336h-48v48h48v-48zM336 96h-48v-48h-192v48h-48v192h96v-192h96v192h96v-192z" />
<glyph unicode="&#xdd;" d="M240 336h-48v48h48v-48zM192 288h-48v48h48v-48zM336 192h-48v-48h-48v-96h-96v96h-48v48h-48v96h96v-96h96v96h96v-96z" />
<glyph unicode="&#xde;" d="M336 192h-48v-48h-144v-96h-96v336h96v-48h144v-48h48v-96zM240 192v96h-96v-96h96z" />
<glyph unicode="&#xdf;" d="M336 96h-48v-48h-96v48h48v96h-48v48h48v96h-96v-288h-96v288h48v48h192v-48h48v-96h-48v-48h48v-96z" />
<glyph unicode="&#xe0;" d="M192 336h-48v48h48v-48zM240 288h-48v48h48v-48zM336 48h-240v48h-48v48h48v48h144v48h-144v48h96h96v-48h48v-192zM240 96v48h-96v-48h96z" />
<glyph unicode="&#xe1;" d="M240 336h-48v48h48v-48zM192 288h-48v48h48v-48zM336 48h-240v48h-48v48h48v48h144v48h-144v48h192v-48h48v-192zM240 96v48h-96v-48h96z" />
<glyph unicode="&#xe2;" d="M240 336h-96v48h96v-48zM288 288h-48v48h48v-48zM144 288h-48v48h48v-48zM336 48h-240v48h-48v48h48v48h144v48h-144v48h192v-48h48v-192zM240 96v48h-96v-48h96z" />
<glyph unicode="&#xe3;" d="M336 336h-48v-48h-96v48h-48v-48h-48v48h48v48h96v-48h48v48h48v-48zM336 48h-240v48h-48v48h48v48h144v48h-144v48h192v-48h48v-192zM240 96v48h-96v-48h96z" />
<glyph unicode="&#xe4;" d="M288 336h-48v48h48v-48zM144 336h-48v48h48v-48zM336 48h-240v48h-48v48h48v48h144v48h-144v48h192v-48h48v-192zM240 96v48h-96v-48h96z" />
<glyph unicode="&#xe5;" d="M240 336h-96v48h96v-48zM336 48h-240v48h-48v48h48v48h144v48h-144v48h192v-48h48v-192zM240 96v48h-96v-48h96z" />
<glyph unicode="&#xe6;" d="M384 144h-144v-48h96v-48h-240v48h-48v48h48v48h96v48h-96v48h240v-48h48v-96zM288 192v48h-48v-48h48zM192 96v48h-48v-48h48z" />
<glyph unicode="&#xe7;" d="M288 96h-48v-96h-144v48h48v48h-48v48h-48v96h48v48h192v-48h-144v-96h144v-48z" />
<glyph unicode="&#xe8;" d="M192 336h-48v48h48v-48zM240 288h-48v48h48v-48zM336 144h-192v-48h144v-48h-192v48h-48v144h48v48h192v-48h48v-96zM240 192v48h-96v-48h96z" />
<glyph unicode="&#xe9;" d="M240 336h-48v48h48v-48zM192 288h-48v48h48v-48zM336 144h-192v-48h144v-48h-192v48h-48v144h48v48h192v-48h48v-96zM240 192v48h-96v-48h96z" />
<glyph unicode="&#xea;" d="M240 336h-96v48h96v-48zM288 288h-48v48h48v-48zM144 288h-48v48h48v-48zM336 144h-192v-48h144v-48h-192v48h-48v144h48v48h192v-48h48v-96zM240 192v48h-96v-48h96z" />
<glyph unicode="&#xeb;" d="M288 336h-48v48h48v-48zM144 336h-48v48h48v-48zM336 144h-192v-48h144v-48h-192v48h-48v144h48v48h192v-48h48v-96zM240 192v48h-96v-48h96z" />
<glyph unicode="&#xec;" d="M192 336h-48v48h48v-48zM240 288h-48v48h48v-48zM288 48h-192v48h48v96h-48v48h144v-144h48v-48z" />
<glyph unicode="&#xed;" d="M240 336h-48v48h48v-48zM192 288h-48v48h48v-48zM288 48h-192v48h48v96h-48v48h144v-144h48v-48z" />
<glyph unicode="&#xee;" d="M240 336h-96v48h96v-48zM288 288h-48v48h48v-48zM144 288h-48v48h48v-48zM288 48h-192v48h48v96h-48v48h144v-144h48v-48z" />
<glyph unicode="&#xef;" d="M288 336h-48v48h48v-48zM144 336h-48v48h48v-48zM288 48h-192v48h48v96h-48v48h144v-144h48v-48z" />
<glyph unicode="&#xf0;" d="M384 288h-48v-240h-240v48h-48v96h48v48h144v48h-52v48h52v48h96v-48h48v-48zM240 96v96h-96v-96h96z" />
<glyph unicode="&#xf1;" d="M336 336h-48v-48h-96v48h-48v-48h-48v48h48v48h96v-48h48v48h48v-48zM336 48h-96v144h-96v-144h-96v192h240v-48h48v-144z" />
<glyph unicode="&#xf2;" d="M192 336h-48v48h48v-48zM240 288h-48v48h48v-48zM336 96h-48v-48h-192v48h-48v96h48v48h192v-48h48v-96zM240 96v96h-96v-96h96z" />
<glyph unicode="&#xf3;" d="M240 336h-48v48h48v-48zM192 288h-48v48h48v-48zM336 96h-48v-48h-192v48h-48v96h48v48h192v-48h48v-96zM240 96v96h-96v-96h96z" />
<glyph unicode="&#xf4;" d="M240 336h-96v48h96v-48zM288 288h-48v48h48v-48zM144 288h-48v48h48v-48zM336 96h-48v-48h-192v48h-48v96h48v48h192v-48h48v-96zM240 96v96h-96v-96h96z" />
<glyph unicode="&#xf5;" d="M336 336h-48v-48h-96v48h-48v-48h-48v48h48v48h96v-48h48v48h48v-48zM336 96h-48v-48h-192v48h-48v96h48v48h192v-48h48v-96zM240 96v96h-96v-96h96z" />
<glyph unicode="&#xf6;" d="M288 336h-48v48h48v-48zM144 336h-48v48h48v-48zM336 96h-48v-48h-192v48h-48v96h48v48h192v-48h48v-96zM240 96v96h-96v-96h96z" />
<glyph unicode="&#xf7;" d="M144 288v48h96v-48h-96zM336 192h-288v48h288v-48zM240 96h-96v48h96v-48z" />
<glyph unicode="&#xf8;" d="M336 96h-48v-48h-192v48h-48v144h48v48h192v-48h48v-144zM240 144h-48v48h48v-48zM240 96v144h-96v-96h48v-48h48z" />
<glyph unicode="&#xf9;" d="M192 336h-48v48h48v-48zM240 288h-48v48h48v-48zM336 48h-240v48h-48v144h96v-144h96v144h96v-192z" />
<glyph unicode="&#xfa;" d="M240 336h-48v48h48v-48zM192 288h-48v48h48v-48zM336 48h-240v48h-48v144h96v-144h96v144h96v-192z" />
<glyph unicode="&#xfb;" d="M240 336h-96v48h96v-48zM288 288h-48v48h48v-48zM144 288h-48v48h48v-48zM336 48h-240v48h-48v144h96v-144h96v144h96v-192z" />
<glyph unicode="&#xfc;" d="M288 336h-48v48h48v-48zM144 336h-48v48h48v-48zM336 48h-240v48h-48v192h96v-192h96v192h96v-240z" />
<glyph unicode="&#xfd;" d="M240 336h-48v48h48v-48zM192 288h-48v48h48v-48zM336 96h-48v-48h-48v-48h-192v48h144v48h-96v48h-48v144h96v-144h96v144h96v-192z" />
<glyph unicode="&#xfe;" d="M336 144h-48v-48h-144v-48h-96v240h96v-48h144v-48h48v-48zM240 144v48h-96v-48h96z" />
<glyph unicode="&#xff;" d="M288 336h-48v48h48v-48zM144 336h-48v48h48v-48zM336 96h-48v-48h-48v-48h-192v48h144v48h-96v48h-48v144h96v-144h96v144h96v-192z" />
<glyph unicode="&#x152;" d="M384 48h-288v48h-48v240h48v48h288v-48h-144v-96h48v-48h-48v-96h144v-48zM192 96v240h-48v-240h48z" />
<glyph unicode="&#x153;" d="M384 144h-144v-48h96v-48h-240v48h-48v144h48v48h240v-48h48v-96zM288 192v48h-48v-48h48zM192 96v144h-48v-144h48z" />
<glyph unicode="&#x178;" d="M288 336h-48v48h48v-48zM144 336h-48v48h48v-48zM336 192h-48v-48h-48v-96h-96v96h-48v48h-48v96h96v-96h96v96h96v-96z" />
<glyph unicode="&#x2c6;" d="M240 336h-96v48h96v-48zM288 288h-48v48h48v-48zM144 288h-48v48h48v-48z" />
<glyph unicode="&#x2dc;" d="M336 336h-48v-48h-96v48h-48v-48h-48v48h48v48h96v-48h48v48h48v-48z" />
<glyph unicode="&#x2000;" horiz-adv-x="256" />
<glyph unicode="&#x2001;" horiz-adv-x="512" />
<glyph unicode="&#x2002;" horiz-adv-x="256" />
<glyph unicode="&#x2003;" horiz-adv-x="512" />
<glyph unicode="&#x2004;" horiz-adv-x="170" />
<glyph unicode="&#x2005;" horiz-adv-x="128" />
<glyph unicode="&#x2006;" horiz-adv-x="85" />
<glyph unicode="&#x2007;" horiz-adv-x="85" />
<glyph unicode="&#x2008;" horiz-adv-x="64" />
<glyph unicode="&#x2009;" horiz-adv-x="102" />
<glyph unicode="&#x200a;" horiz-adv-x="28" />
<glyph unicode="&#x2010;" d="M336 192h-288v48h288v-48z" />
<glyph unicode="&#x2011;" d="M336 192h-288v48h288v-48z" />
<glyph unicode="&#x2013;" d="M288 96h-192v48h192v-48z" />
<glyph unicode="&#x2014;" d="M336 96h-288v48h288v-48z" />
<glyph unicode="&#x2018;" d="M240 240h-96v48h-48v96h96v-96h48v-48z" />
<glyph unicode="&#x2019;" d="M240 288h-48v-48h-96v48h48v96h96v-96z" />
<glyph unicode="&#x201a;" d="M288 96h-48v-48h-48v-48h-96v48h48v48h48v48h96v-48z" />
<glyph unicode="&#x201c;" d="M336 336h-48v-96h-96v96h48v48h96v-48zM192 336h-48v-96h-96v96h48v48h96v-48z" />
<glyph unicode="&#x201d;" d="M336 288h-48v-48h-96v48h48v96h96v-96zM192 288h-48v-48h-96v48h48v96h96v-96z" />
<glyph unicode="&#x201e;" d="M336 0h-96v144h96v-144zM144 0h-96v144h96v-144z" />
<glyph unicode="&#x2022;" d="M288 144h-48v-48h-96v48h-48v96h48v48h96v-48h48v-96z" />
<glyph unicode="&#x2026;" d="M288 48h-48v96h48v-96zM192 48h-48v96h48v-96zM96 48h-48v96h48v-96z" />
<glyph unicode="&#x202f;" horiz-adv-x="102" />
<glyph unicode="&#x2039;" d="M240 288h-48v48h48v-48zM192 144h-48v48h-48v48h48v48h48v-48h-48v-48h48v-48zM240 96h-48v48h48v-48z" />
<glyph unicode="&#x203a;" d="M192 288h-48v48h48v-48zM288 192h-48v-48h-48v48h48v48h-48v48h48v-48h48v-48zM192 96h-48v48h48v-48z" />
<glyph unicode="&#x205f;" horiz-adv-x="128" />
<glyph unicode="&#x2122;" d="M384 192h-48v96h-48v-96h-48v96h-48v-96h-48v192h48v-48h48v-48h48v48h48v48h48v-192zM144 336h-48v-144h-48v144h-48v48h144v-48z" />
</font>
</defs>
</svg>
